<svg xmlns="http://www.w3.org/2000/svg" version="1.1" xmlns:xlink="http://www.w3.org/1999/xlink" xmlns:svgjs="http://svgjs.com/svgjs" width="1440" height="560" preserveAspectRatio="none" viewBox="0 0 1440 560"><g mask="url(&quot;#SvgjsMask1152&quot;)" fill="none"><rect width="1440" height="560" x="0" y="0" fill="rgba(249, 250, 253, 1)"></rect><path d="M1512 560L0 560 L0 301.45Q59.99 241.44, 120 301.42Q134.49 195.91, 240 210.4Q293.66 144.06, 360 197.72Q433.25 150.97, 480 224.21Q587.75 211.97, 600 319.72Q645.94 245.66, 720 291.6Q710.79 210.4, 792 201.19Q863.47 200.66, 864 272.12Q882.74 218.86, 936 237.59Q1003.54 185.13, 1056 252.68Q1121.94 246.62, 1128 312.56Q1144.1 256.66, 1200 272.76Q1220.14 220.9, 1272 241.05Q1323.26 172.31, 1392 223.58Q1481.83 193.41, 1512 283.24z" fill="rgba(154, 158, 167, 1)"></path><path d="M1488 560L0 560 L0 305.91Q51.93 237.84, 120 289.77Q184.4 282.17, 192 346.58Q234.89 317.47, 264 360.35Q279.32 303.67, 336 318.99Q404.54 267.53, 456 336.08Q540.8 300.88, 576 385.68Q618.03 355.71, 648 397.74Q655.49 333.23, 720 340.71Q771.95 272.66, 840 324.62Q892.98 305.6, 912 358.58Q986.68 313.26, 1032 387.94Q1059.46 343.4, 1104 370.87Q1133.13 328, 1176 357.12Q1201.04 262.16, 1296 287.2Q1368.15 239.35, 1416 311.5Q1474.2 297.7, 1488 355.9z" fill="rgba(196, 206, 223, 1)"></path><path d="M1464 560L0 560 L0 464.11Q42.75 386.86, 120 429.6Q216.73 406.33, 240 503.06Q254.62 445.68, 312 460.3Q349.87 378.17, 432 416.04Q485.06 349.1, 552 402.16Q619.27 397.44, 624 464.71Q668.78 389.49, 744 434.26Q800.89 419.15, 816 476.05Q817.68 405.73, 888 407.4Q916.03 363.44, 960 391.47Q1056.02 367.5, 1080 463.52Q1123.17 386.69, 1200 429.87Q1287.65 397.52, 1320 485.18Q1362.94 456.13, 1392 499.07Q1392.8 427.87, 1464 428.67z" fill="rgba(46, 196, 245, 1)"></path><path d="M1536 560L0 560 L0 592.77Q38.33 511.1, 120 549.42Q150.05 459.47, 240 489.53Q316.18 445.7, 360 521.88Q451.16 493.04, 480 584.19Q493.56 477.75, 600 491.32Q649.55 420.87, 720 470.42Q772.03 450.45, 792 502.48Q862.7 453.18, 912 523.88Q983.52 475.4, 1032 546.92Q1064.08 459, 1152 491.07Q1200.92 468, 1224 516.92Q1290.51 463.43, 1344 529.95Q1397.97 511.92, 1416 565.9Q1467.45 497.35, 1536 548.8z" fill="rgba(33, 9, 234, 1)"></path></g><defs><mask id="SvgjsMask1152"><rect width="1440" height="560" fill="#ffffff"></rect></mask></defs></svg>